<svg width="21" height="21" viewBox="0 0 21 21" fill="none" xmlns="http://www.w3.org/2000/svg">
<path d="M10.17 11.57C10.17 10.17 11.73 9.86 11.73 8.99C11.73 8.5 11.3 8.19 10.65 8.19C10.01 8.19 9.52 8.47 9.2 8.93L7.99 8.22C8.53 7.4 9.47 6.88 10.82 6.88C12.32 6.88 13.36 7.55 13.36 8.73C13.36 10.33 11.68 10.51 11.68 11.57H10.17ZM10.93 14.08C10.37 14.08 9.97 13.67 9.97 13.17C9.97 12.66 10.37 12.28 10.93 12.28C11.49 12.28 11.89 12.66 11.89 13.17C11.89 13.67 11.49 14.08 10.93 14.08Z" fill="white"/>
<circle cx="10.5" cy="10.5" r="9.5" stroke="white" stroke-width="2"/>
</svg>
