<svg width="21" height="22" viewBox="0 0 21 22" fill="none" xmlns="http://www.w3.org/2000/svg">
<path d="M10.17 12.07C10.17 10.67 11.73 10.36 11.73 9.49C11.73 9 11.3 8.69 10.65 8.69C10.01 8.69 9.52 8.97 9.2 9.43L7.99 8.72C8.53 7.9 9.47 7.38 10.82 7.38C12.32 7.38 13.36 8.05 13.36 9.23C13.36 10.83 11.68 11.01 11.68 12.07H10.17ZM10.93 14.58C10.37 14.58 9.97 14.17 9.97 13.67C9.97 13.16 10.37 12.78 10.93 12.78C11.49 12.78 11.89 13.16 11.89 13.67C11.89 14.17 11.49 14.58 10.93 14.58Z" fill="#FFC700" fill-opacity="0.5"/>
<circle cx="10.5" cy="11" r="9.5" stroke="#FFC700" stroke-opacity="0.5" stroke-width="2"/>
</svg>
